<svg width="294" height="81" viewBox="0 0 294 81" fill="none" xmlns="http://www.w3.org/2000/svg">
<rect y="0.967834" width="79.074" height="79.074" fill="black"/>
<path d="M22.5155 28.3964C15.8201 28.3592 10.4063 33.9124 10.3784 40.6913C10.3505 47.5538 15.783 53.1349 22.4412 53.107C29.0808 53.1256 34.4483 47.6096 34.4947 40.8585C34.5504 33.9774 29.118 28.4335 22.5155 28.3964ZM28.4122 34.5346C28.1986 34.7389 27.8736 34.6367 27.66 34.4231C27.4929 34.256 27.3536 34.0424 27.2143 33.8474C26.88 33.3738 26.3228 33.2809 25.9235 33.7081C25.6171 34.0331 25.3199 34.4324 25.1899 34.8503C24.7813 36.1225 24.4563 37.4226 24.0848 38.7876C25.1992 38.9548 26.2393 39.1127 27.335 39.2798C27.2514 39.5955 27.1679 39.8741 27.0843 40.2084C26.0257 40.0506 24.9949 39.902 23.9456 39.7534C23.8155 40.4034 23.6948 40.9978 23.5648 41.6664C24.6792 41.8335 25.7842 42.0007 26.9357 42.1771C26.8521 42.4928 26.7593 42.7807 26.6757 43.1057C25.5706 42.9386 24.4934 42.7807 23.3884 42.6136C23.1748 43.4215 23.0076 44.2201 22.7662 44.9908C22.4876 45.8359 22.1997 46.6902 21.819 47.4888C21.3268 48.501 20.5375 49.2254 19.4139 49.4482C18.7453 49.5875 18.0767 49.5225 17.5195 49.0768C17.3523 48.9468 17.1666 48.7146 17.1573 48.5289C17.1388 48.306 17.2595 48.0089 17.4266 47.8789C17.5381 47.786 17.8724 47.8603 18.021 47.9717C18.2252 48.1296 18.3553 48.3896 18.5038 48.6032C18.8474 49.0953 19.3489 49.1603 19.8039 48.761C20.3518 48.2782 20.6397 47.6281 20.8161 46.9409C21.1876 45.5109 21.494 44.0622 21.819 42.6229C21.8376 42.5578 21.819 42.4928 21.819 42.3721C20.7882 42.2143 19.7575 42.0471 18.6896 41.88C18.7267 41.5642 18.7639 41.3042 18.8103 40.9513C19.8689 41.0999 20.9275 41.2578 22.0326 41.4156C22.1812 40.7935 22.3205 40.1806 22.469 39.5213C21.3361 39.3448 20.2404 39.1684 19.0982 38.9919C19.1353 38.6762 19.1817 38.3698 19.2189 38.054C20.3797 38.2212 21.5033 38.3883 22.6733 38.5648C22.7662 38.2119 22.8498 37.8869 22.9426 37.5711C23.2677 36.4754 23.5555 35.3703 24.2334 34.4231C24.9113 33.4759 25.7749 32.8445 26.9821 32.8909C27.5207 32.9095 28.0315 33.0673 28.4122 33.5131C28.4865 33.6059 28.5979 33.7174 28.5979 33.8195C28.5794 34.061 28.5979 34.386 28.4494 34.5253L28.4122 34.5346Z" fill="white"/>
<path d="M46.8827 45.1953L50.6715 32.891H54.0981L48.4613 49.2255H45.174L39.4816 32.891H42.9732L46.8734 45.1953H46.8827Z" fill="white"/>
<path d="M62.0655 49.5228C57.2181 49.5228 54.423 46.189 54.423 40.9794C54.423 35.7699 57.3946 32.594 62.1491 32.594C65.975 32.594 68.5937 34.7763 69.1323 38.1843H66.0679C65.455 35.9092 63.9228 35.1663 62.1212 35.1663C59.6418 35.1663 57.7474 37.1907 57.7474 40.9794C57.7474 44.7682 59.6418 46.9505 62.0098 46.9505C63.9506 46.9505 65.5479 46.0683 66.0679 43.8582H69.1323C68.7052 47.1455 65.975 49.5135 62.0562 49.5135L62.0655 49.5228Z" fill="white"/>
<path d="M121.454 20.405C121.48 27.3169 117.343 28.3043 112.843 28.321L110.287 28.3305L110.228 12.5986L112.784 12.5891C117.284 12.5724 121.428 13.493 121.454 20.405ZM104.053 7.4375L104.151 33.5373L112.755 33.5054C121.287 33.4737 128.007 30.3167 127.97 20.3808C127.932 10.4808 121.189 7.37385 112.657 7.40554L104.053 7.4375ZM144.511 27.3034C143.832 28.4579 142.431 29.2551 140.163 29.2635C138.003 29.2716 135.874 28.0195 135.683 25.2481L150.047 25.1948C150.417 18.2814 146.475 13.436 140.031 13.4599C134.379 13.4809 129.678 17.4584 129.701 23.6503C129.726 30.0943 134.06 33.8942 140.36 33.8708C144.212 33.8565 148.272 31.8614 149.983 27.283L144.511 27.3034ZM140.048 17.9959C142.316 17.9875 144.013 19.1692 144.13 21.6167L135.742 21.6479C136.056 19.0907 137.924 18.0038 140.048 17.9959ZM158.756 23.2544C158.743 19.7985 159.745 18.1387 162.193 18.1296C165.037 18.1191 165.19 20.3865 165.2 23.1585L165.238 33.3104L171.178 33.2884L171.14 23.2084C171.127 19.7525 172.129 18.0927 174.577 18.0836C177.421 18.0731 177.574 20.3405 177.584 23.1125L177.622 33.2644L183.562 33.2424L183.518 21.6145C183.499 16.3585 181.94 13.4483 176.972 13.4667C174.236 13.4769 171.828 14.6018 170.36 16.7673C169.452 14.6106 167.72 13.5011 164.588 13.5127C161.672 13.5235 159.59 15.0793 158.731 16.5225L158.721 13.9665L152.782 13.9886L152.854 33.3564L158.794 33.3344L158.756 23.2544ZM196.138 17.8596C198.478 17.8509 200.355 19.2839 200.371 23.4239C200.386 27.4918 198.592 29.0465 196.18 29.0555C193.768 29.0644 191.962 27.5231 191.947 23.4552C191.932 19.3152 193.798 17.8682 196.138 17.8596ZM196.121 13.2516C190.757 13.2715 185.873 16.4577 185.899 23.4776C185.925 30.4976 190.833 33.6834 196.197 33.6634C201.561 33.6435 206.445 30.4214 206.419 23.4014C206.393 16.3815 201.485 13.2317 196.121 13.2516ZM234.122 19.9865C234.148 26.8985 230.011 27.8858 225.511 27.9025L222.955 27.912L222.896 12.1801L225.452 12.1706C229.952 12.1539 234.096 13.0745 234.122 19.9865ZM216.721 7.01904L216.819 33.1189L225.423 33.0869C233.955 33.0552 240.675 29.8982 240.638 19.9623C240.6 10.0624 233.857 6.95539 225.325 6.98708L216.721 7.01904ZM254.864 20.8815C247.343 21.4854 241.985 23.0533 242.002 27.8053C242.016 31.3333 245.048 33.482 248.72 33.4684C251.492 33.4581 253.793 32.6935 255.225 30.6362L255.306 32.9759L261.138 32.9542C260.845 31.7673 260.693 29.4639 260.685 27.3399L260.677 25.3239L260.733 21.1117C260.819 15.2433 257.643 12.9871 252.063 13.0078C246.303 13.0292 242.859 16.282 242.585 19.9191L248.129 19.8985C248.374 18.0256 249.666 17.0487 251.574 17.0417C253.734 17.0336 254.853 17.8215 254.862 20.1255L254.864 20.8815ZM255.023 24.8409C255.037 28.4049 253.24 29.4196 250.864 29.4284C249.317 29.4341 248.125 28.6105 248.121 27.3506C248.113 25.2266 250.883 24.7843 255.022 24.3729L255.023 24.8409ZM266.123 39.2358C271.199 39.2169 272.598 37.8437 274.523 32.9045L282.047 13.5085L275.675 13.5321L271.904 25.6782L268.295 13.5595L261.779 13.5837L269.087 32.8167L268.909 33.3214C268.338 34.7635 267.835 34.9454 265.387 34.9545L264.199 34.9589L264.215 39.2429L266.123 39.2358Z" fill="black"/>
<path d="M114.554 72.6112L119.754 56.1792V72.6112H122.406V53.7612H117.96L113.15 69.4652L108.34 53.7612H103.894V72.6112H106.546V56.1792L111.746 72.6112H114.554ZM135.323 66.7612C135.323 70.0632 133.217 71.0772 131.007 71.0772C129.317 71.0772 128.303 70.1932 128.303 68.8672C128.303 66.9432 131.033 66.2932 135.323 65.8772V66.7612ZM130.487 72.9492C132.983 72.9492 134.413 72.1432 135.271 70.6872C135.297 71.5192 135.375 72.0912 135.453 72.6112H137.845C137.559 71.2852 137.455 69.6992 137.481 67.3332L137.507 64.1092C137.533 60.1312 135.869 58.3372 131.943 58.3372C129.239 58.3372 126.535 60.0272 126.327 63.0432H128.771C128.875 61.3012 129.993 60.2612 131.969 60.2612C133.737 60.2612 135.141 61.0932 135.141 63.6672V64.0052C129.421 64.6292 125.677 65.6172 125.677 68.9192C125.677 71.4932 127.861 72.9492 130.487 72.9492ZM148 58.5712C147.714 58.5452 147.532 58.5452 147.298 58.5452C145.452 58.6232 144.048 59.4812 143.346 61.0672V58.6232H141.032V72.6112H143.398V65.2792C143.398 62.1592 144.49 60.9892 146.674 60.9892C147.064 60.9892 147.506 61.0152 148 61.0932V58.5712ZM155.819 58.3892C151.659 58.3892 149.059 61.4832 149.059 65.6432C149.059 69.9072 151.555 72.9492 155.585 72.9492C158.861 72.9492 161.331 70.6872 161.825 68.0612H159.381C159.043 69.5172 157.665 70.8692 155.663 70.8692C153.583 70.8692 151.633 69.1532 151.633 65.6172C151.633 62.1072 153.583 60.4692 155.663 60.4692C157.509 60.4692 158.939 61.6392 159.277 63.3032H161.669C161.331 60.9112 159.225 58.3892 155.819 58.3892ZM166.859 53.7612H164.493V72.6112H166.859V65.0192C166.859 61.9772 168.263 60.4432 170.551 60.4432C173.255 60.4432 173.619 62.3152 173.619 64.4732V72.6112H175.985V63.7712C175.985 60.5732 174.763 58.3892 171.383 58.3892C169.017 58.3892 167.665 59.4032 166.859 60.7292V53.7612ZM191.675 53.4232C187.645 53.4232 185.045 55.8932 185.123 59.6372H187.567C187.645 56.5172 189.595 55.3992 191.623 55.3992C193.885 55.3992 195.159 56.6992 195.159 58.6752C195.159 62.0292 191.259 65.5652 184.603 70.4792V72.6112H198.175V70.4012H187.827C193.105 66.5792 197.655 62.7312 197.655 58.3632C197.655 55.1652 195.159 53.4232 191.675 53.4232ZM206.204 72.6112V53.7612H204.592C203.552 55.7892 202.174 56.1792 199.47 56.2572V57.8692H203.838V72.6112H206.204ZM210.421 72.6112H211.695L210.317 76.2252H211.825L213.411 72.8192V69.6212H210.421V72.6112ZM229.126 53.4232C225.096 53.4232 222.496 55.8932 222.574 59.6372H225.018C225.096 56.5172 227.046 55.3992 229.074 55.3992C231.336 55.3992 232.61 56.6992 232.61 58.6752C232.61 62.0292 228.71 65.5652 222.054 70.4792V72.6112H235.626V70.4012H225.278C230.556 66.5792 235.106 62.7312 235.106 58.3632C235.106 55.1652 232.61 53.4232 229.126 53.4232ZM250 63.1732C250 68.4772 248.206 70.9732 245.19 70.9732C242.174 70.9732 240.38 68.4772 240.38 63.1732C240.38 57.8952 242.174 55.3992 245.19 55.3992C248.18 55.3992 250 57.8952 250 63.1732ZM252.522 63.1732C252.522 57.2192 250.208 53.4232 245.19 53.4232C240.172 53.4232 237.858 57.2192 237.858 63.1732C237.858 69.1272 240.172 72.9492 245.19 72.9492C250.208 72.9492 252.522 69.1272 252.522 63.1732ZM261.651 53.4232C257.621 53.4232 255.021 55.8932 255.099 59.6372H257.543C257.621 56.5172 259.571 55.3992 261.599 55.3992C263.861 55.3992 265.135 56.6992 265.135 58.6752C265.135 62.0292 261.235 65.5652 254.579 70.4792V72.6112H268.151V70.4012H257.803C263.081 66.5792 267.631 62.7312 267.631 58.3632C267.631 55.1652 265.135 53.4232 261.651 53.4232ZM276.467 70.9732C273.789 70.9732 272.463 69.3612 272.177 67.0472H269.733C270.019 70.1932 271.969 72.9492 276.441 72.9492C280.055 72.9492 283.253 71.1032 283.253 67.3072C283.253 65.3052 282.473 63.4852 279.665 62.5752C281.641 61.7692 282.733 60.1572 282.733 58.2072C282.733 54.7492 279.873 53.4232 276.623 53.4232C272.671 53.4232 270.305 55.7372 270.019 59.0652H272.463C272.671 56.9072 274.049 55.3992 276.571 55.3992C278.573 55.3992 280.237 56.4652 280.237 58.4672C280.237 60.6772 278.547 61.5872 275.219 61.5872H274.907V63.7452H275.297C278.313 63.7452 280.731 64.6292 280.731 67.3332C280.731 69.6992 278.963 70.9732 276.467 70.9732Z" fill="#393939"/>
</svg>
